# xmcd
# Track frame offsets:
# 150
# 21855
# 37307
# 52212
# 67642
# 84365
# 98145
# 110360
# 122845
# 140455
# 156850
# 170420
#
# Disc length: 2464 seconds
# Revision: 0
# Processed by: cddbd v1.4PL0 Copyright (c) Steve Scherf et al.
# Submitted via: VisiTrax 2.9.5.181 - For more info visit www.synapsa.com
#
DISCID=9e099e0c
DTITLE=Various Artist - America's Country-Great Country Hits
DYEAR=1997
DGENRE=
TTITLE0=Restless Heart - Bluest Eyes In Texas
TTITLE1=Mel Tillis - Coca Coca Cowboy
TTITLE2=Ronnie Milsap - (There's) No Gettin' Over Me
TTITLE3=John Conlee - Rose Colored Glasses
TTITLE4=John Anderson - I'm Just An Old Chunk of Coal (But I'm Gonna Be A Diam
TTITLE4=ond Some Day)
TTITLE5=Randy Travis - Diggin' Up bones
TTITLE6=Oak Ridge Boys - American Made
TTITLE7=Charlie Pride - Night Games
TTITLE8=Earl Thomas Conley - What I'd Say
TTITLE9=Vince Gill - Cinderella
TTITLE10=T. Graham Brown - Brillant Conversationalist
TTITLE11=Lee Greenwood - God Bless The USA
EXTD=
EXTT0=
EXTT1=
EXTT2=
EXTT3=
EXTT4=
EXTT5=
EXTT6=
EXTT7=
EXTT8=
EXTT9=
EXTT10=
EXTT11=
PLAYORDER=
